<?xml version="1.0" encoding="UTF-8"?>
<svg id="Ebene_1" xmlns="http://www.w3.org/2000/svg" version="1.1" viewBox="0 0 225 225">
  <!-- Generator: Adobe Illustrator 30.2.1, SVG Export Plug-In . SVG Version: 2.1.1 Build 1)  -->
  <defs>
    <style>
      .st0 {
        fill: #197ec4;
      }
    </style>
  </defs>
  <path class="st0" d="M225,110.38v4.2c-2.59,34.3-47.44,43.42-63.15,12.45-.06-.12-.21-.17-.34-.11-.06.03-.1.08-.12.15-4.76,16.66-17.93,29.9-34.39,34.88-27.56,8.33-54.94-7.92-63.35-34.79-.05-.15-.21-.23-.35-.18-.07.02-.13.07-.16.14-9.46,19.28-33.53,25.01-50.39,11.65-7.54-5.97-11.79-14.1-12.75-24.38v-3.48c1.69-15.78,9.76-26.01,24.22-30.7,5.77-1.87,11.93-1.8,18.47.21,9.37,2.89,16.17,8.72,20.39,17.49.07.17.27.24.44.17.09-.04.16-.12.18-.22,9.48-30.88,44.25-46.67,73.15-30.63,11.87,6.59,20.06,16.73,24.59,30.42.05.15.22.23.36.18.06-.02.1-.05.14-.1.41-.59,1.22-1.89,2.43-3.88,1.97-3.24,4.78-6.15,8.43-8.72,12.92-9.1,29.44-7.93,41.19,2.49,6.38,5.65,10.05,13.24,11.01,22.76ZM144.46,112.52c0-17.56-14.23-31.79-31.79-31.79h0c-17.56,0-31.79,14.23-31.79,31.79,0,17.56,14.23,31.79,31.79,31.79s31.79-14.23,31.79-31.79ZM47.1,112.52c0-7.63-6.19-13.82-13.82-13.82h0c-7.63,0-13.82,6.19-13.82,13.82h0c0,7.63,6.19,13.82,13.82,13.82h0c7.63,0,13.82-6.19,13.82-13.82h0ZM205.53,112.53c0-7.63-6.19-13.82-13.82-13.82s-13.82,6.19-13.82,13.82h0c0,7.63,6.19,13.82,13.82,13.82h0c7.63,0,13.82-6.19,13.82-13.82Z"/>
</svg>