<?xml version="1.0" encoding="UTF-8"?>
<svg id="Ebene_1" xmlns="http://www.w3.org/2000/svg" version="1.1" viewBox="0 0 27.86 27.86">
  <!-- Generator: Adobe Illustrator 30.2.1, SVG Export Plug-In . SVG Version: 2.1.1 Build 1)  -->
  <defs>
    <style>
      .st0 {
        fill: #ed7203;
      }

      .st1 {
        fill: #fff;
      }

      .st2 {
        fill: #30ce42;
      }
    </style>
  </defs>
  <polygon class="st0" points="21.46 14.59 18.64 18.92 15.81 14.59 12.05 14.59 9.22 18.92 6.4 14.59 0 14.59 6.4 25.32 21.46 25.32 27.86 14.59 21.46 14.59"/>
  <polygon class="st0" points="6.4 2.54 0 13.27 6.4 13.27 9.22 8.94 11.86 13.27 15.81 13.27 18.64 8.94 21.46 13.27 27.86 13.27 21.46 2.54 6.4 2.54"/>
  <circle class="st1" cx="22.01" cy="5.39" r="3.86"/>
  <path class="st2" d="M22.01.85c-2.51,0-4.54,2.03-4.54,4.54s2.03,4.54,4.54,4.54,4.54-2.03,4.54-4.54S24.52.85,22.01.85M21.1,7.66l-2.27-2.27.64-.64,1.63,1.63,3.45-3.45.64.64-4.09,4.09Z"/>
</svg>