<?xml version="1.0" encoding="UTF-8"?>
<svg version="1.1" xmlns="http://www.w3.org/2000/svg" width="2378" height="445">
<path d="M0 0 C7.29281452 6.23865649 13.94679154 13.19368448 20.16796875 20.4921875 C22.69810277 23.40236223 25.31901392 26.22381954 27.94140625 29.05078125 C31.5108333 32.90168627 35.06286835 36.76455894 38.56640625 40.67578125 C43.45359732 46.12351036 48.40966989 51.50591811 53.38916016 56.86914062 C54.53556418 58.10398629 55.68102946 59.33970396 56.82568359 60.57617188 C75.33216134 80.81710789 75.33216134 80.81710789 96.06640625 98.67578125 C97.04609375 99.42214844 98.02578125 100.16851562 99.03515625 100.9375 C117.11439512 114.11654913 138.38129786 120.41341135 159.6953125 126.41943359 C186.185984 133.89998147 186.185984 133.89998147 193.06640625 144.67578125 C195.9582333 151.21382501 196.19931216 159.28661881 194.4140625 166.203125 C190.7583783 175.38155958 184.21251558 179.98834855 175.6171875 184.31640625 C166.35726704 187.86145831 157.51424375 189.20974597 147.62890625 189.11328125 C145.98921875 189.10192139 145.98921875 189.10192139 144.31640625 189.09033203 C129.51963436 188.7883121 118.32326385 184.42167421 107.85058594 173.79663086 C104.5678206 169.89441651 102.42694695 165.38917883 100.12890625 160.86328125 C92.76560598 146.97497465 86.37263393 137.46332152 71.07421875 131.51171875 C64.84179604 129.77959088 58.43554191 129.53351941 52.56640625 132.36328125 C46.1148407 138.33097938 43.55669609 144.23464673 42.76651001 153.00396729 C42.62589441 156.81480879 42.57218919 160.62075884 42.5546875 164.43359375 C42.5378056 165.8317926 42.51965075 167.22997659 42.50028992 168.62814331 C42.4531639 172.27432612 42.42311458 175.92044872 42.39685059 179.5668335 C42.36685415 183.30118622 42.32054707 187.03533615 42.27539062 190.76953125 C42.18826794 198.07162816 42.12800413 205.37324661 42.06640625 212.67578125 C24.90640625 212.67578125 7.74640625 212.67578125 -9.93359375 212.67578125 C-10.26359375 199.14578125 -10.59359375 185.61578125 -10.93359375 171.67578125 C-12.91359375 175.30578125 -14.89359375 178.93578125 -16.93359375 182.67578125 C-18.64655095 185.03489835 -20.27716415 187.1923046 -22.18359375 189.36328125 C-22.65829102 189.90944092 -23.13298828 190.45560059 -23.62207031 191.01831055 C-39.45010186 208.80773323 -61.64888903 216.8510417 -84.93359375 218.67578125 C-115.44085336 220.41166648 -146.23516804 210.50850494 -169.18359375 190.17578125 C-170.77316549 188.68239379 -172.35689924 187.18275798 -173.93359375 185.67578125 C-174.6090625 185.07507813 -175.28453125 184.474375 -175.98046875 183.85546875 C-198.60706404 162.9484947 -206.57396076 130.70363711 -208.0625 101.11328125 C-208.80073314 69.61533407 -199.51680366 38.75425322 -178.93359375 14.67578125 C-178.29164062 13.8765625 -177.6496875 13.07734375 -176.98828125 12.25390625 C-157.93410218 -10.49518967 -128.24395968 -22.69703801 -99.35571289 -26.12792969 C-64.0465789 -28.98938959 -28.02652465 -23.03095371 0 0 Z M-131.93359375 46.67578125 C-132.5678125 47.289375 -133.20203125 47.90296875 -133.85546875 48.53515625 C-146.94924758 62.09243168 -150.59258538 81.08354374 -150.40209961 99.24023438 C-149.83201489 117.18525116 -143.15740155 134.45445712 -130.5 147.34375 C-116.04870682 160.47529038 -98.26558628 165.94177427 -78.93359375 165.67578125 C-59.48383523 164.36548173 -43.20441724 156.87689137 -29.93359375 142.67578125 C-17.00041951 126.12510124 -13.29785521 106.18038111 -14.93359375 85.67578125 C-16.89840393 69.71169855 -23.35440466 55.95958286 -34.93359375 44.67578125 C-35.6090625 43.96808594 -36.28453125 43.26039063 -36.98046875 42.53125 C-49.65342907 30.07268187 -67.50235975 26.13183603 -84.75366211 26.25585938 C-102.89270887 26.8235575 -119.20444872 33.58032989 -131.93359375 46.67578125 Z " fill="#000000" transform="translate(1308.93359375,127.32421875)"/>
<path d="M0 0 C18.81 0 37.62 0 57 0 C57.02578125 9.17554687 57.0515625 18.35109375 57.078125 27.8046875 C57.10331661 33.64715624 57.12950702 39.4895928 57.16015625 45.33203125 C57.20852981 54.58805047 57.25303812 63.84396274 57.27099609 73.10009766 C57.28409933 79.84422087 57.31128135 86.58812385 57.35461307 93.33212292 C57.37703551 96.89527589 57.39292245 100.45815924 57.39188385 104.02138901 C57.39248693 127.11787929 57.51801685 150.05525793 74.52734375 167.74609375 C86.55625944 178.71083996 101.43244788 182.40835404 117.41015625 182.20703125 C131.91608248 181.37045444 145.18279253 176.92310224 156 167 C168.47831835 152.1038794 172.28352235 134.98830294 172.31884766 115.90942383 C172.32889328 114.64960693 172.3389389 113.38979004 172.34928894 112.09179688 C172.37633431 108.67314837 172.3916617 105.25454046 172.40471697 101.83581376 C172.42046038 98.24968254 172.44721417 94.66363289 172.4727478 91.07756042 C172.51933879 84.30288318 172.55617743 77.52819025 172.58942068 70.75343579 C172.63496994 61.58736201 172.69577021 52.4213898 172.75566864 43.25540066 C172.84949286 28.83698496 172.92310113 14.41853892 173 0 C191.81 0 210.62 0 230 0 C230.06630213 29.83493775 230.12163044 59.66983449 230.15319599 89.50482614 C230.15694751 93.03780414 230.16083053 96.57078199 230.16479492 100.10375977 C230.16558185 100.80702695 230.16636878 101.51029413 230.16717956 102.23487244 C230.18018605 113.5791638 230.20381325 124.92340892 230.23145839 136.26767298 C230.25964575 147.93288951 230.27620422 159.59808205 230.28226548 171.26333123 C230.28615756 177.80501186 230.29522821 184.3465881 230.31719017 190.88823509 C230.33774463 197.06139398 230.34379595 203.23440673 230.33932304 209.40759659 C230.34013984 211.65797663 230.34599135 213.90836222 230.35761642 216.15871239 C230.52709994 250.69807714 224.75531934 282.73933099 200.125 308.5 C179.79319794 328.77187044 150.10615676 337.17860025 122 338 C120.87207031 338.03996094 119.74414062 338.07992188 118.58203125 338.12109375 C85.97859479 338.71515422 53.35828618 330.99526339 29.12280273 308.14624023 C15.32978312 294.68833026 7.01382902 278.46268804 2 260 C2 259.01 2 258.02 2 257 C9.29249484 256.69767534 16.58362427 256.46727947 23.88113403 256.32644176 C27.27083809 256.25880731 30.65623418 256.16728004 34.04345703 256.01928711 C56.04419144 255.12714724 56.04419144 255.12714724 60.96716309 258.24642944 C64.2332017 261.66274137 65.44244678 265.58294902 67 270 C75.30317433 279.81042637 88.3012326 285.8130966 101 287 C120.42662919 288.09703318 139.04440387 287.88651616 155.3125 275.75 C170.97669811 259.72151822 172.34763586 239.44661412 172.125 218.25 C172.11494397 216.57031787 172.10582278 214.89062988 172.09765625 213.2109375 C172.07586468 209.14047718 172.04148163 205.07030532 172 201 C171.45875488 201.75200684 170.91750977 202.50401367 170.35986328 203.27880859 C169.28841064 204.7611499 169.28841064 204.7611499 168.1953125 206.2734375 C167.13594482 207.74176025 167.13594482 207.74176025 166.05517578 209.23974609 C154.74940636 224.42423517 136.65987817 232.64601863 118.29296875 235.49609375 C91.62578316 238.98566085 62.70735764 232.91158446 41.125 216.5 C39.73969954 215.34558295 38.36451132 214.17891687 37 213 C35.89785156 212.11248047 35.89785156 212.11248047 34.7734375 211.20703125 C12.32169667 192.49724723 3.42384883 163.26869646 0.27956772 135.23898697 C-0.63842178 124.60343853 -0.36970345 113.88280524 -0.30418181 103.2160871 C-0.28510798 99.57269043 -0.28364091 95.9292818 -0.28010559 92.2858429 C-0.27087347 85.42285715 -0.24638284 78.56001905 -0.21605712 71.6970976 C-0.17587842 62.39754326 -0.15998664 53.09794701 -0.14255047 43.79832745 C-0.11455248 29.19877491 -0.05472545 14.59953356 0 0 Z " fill="#000000" transform="translate(2148,107)"/>
<path d="M0 0 C0.77079895 0.00021149 1.5415979 0.00042297 2.33575439 0.00064087 C30.79969862 0.07849589 57.47761118 7.74833074 78 28.375 C96.99810173 49.45468386 102 75.83446849 102 103.375 C83.52 103.375 65.04 103.375 46 103.375 C45.01 96.775 44.02 90.175 43 83.375 C39.04715458 71.51646374 33.23645389 63.2303599 22 57.375 C9.73017195 51.80735542 -7.84267924 52.5130505 -20.3359375 57.11328125 C-30.09189871 61.73377314 -36.94986779 69.45915906 -41 79.375 C-45.55490531 98.48751651 -45.55490531 98.48751651 -45 139.375 C-5.73 139.375 33.54 139.375 74 139.375 C74 156.535 74 173.695 74 191.375 C34.73 191.375 -4.54 191.375 -45 191.375 C-45 240.545 -45 289.715 -45 340.375 C-63.81 340.375 -82.62 340.375 -102 340.375 C-102.06629165 309.13871627 -102.12162403 277.90250113 -102.15319599 246.66616889 C-102.15694755 242.96795687 -102.16083057 239.269745 -102.16479492 235.5715332 C-102.16558185 234.83536926 -102.16636878 234.09920531 -102.16717956 233.34073337 C-102.18018904 221.4629547 -102.20381795 209.58522014 -102.23145839 197.70746753 C-102.25963731 185.49532487 -102.27620247 173.28320511 -102.28226548 161.07103127 C-102.28635622 153.55182527 -102.2992163 146.03274402 -102.3237494 138.51357647 C-102.34166993 132.7216389 -102.34333448 126.92977902 -102.33932304 121.13781929 C-102.34014044 118.78101083 -102.34600019 116.42419712 -102.35761642 114.06741714 C-102.49830461 84.01987224 -99.25456988 52.5049731 -78 29.375 C-77.36320312 28.66988281 -76.72640625 27.96476562 -76.0703125 27.23828125 C-56.22472634 6.31672957 -27.77190554 -0.0703284 0 0 Z " fill="#000000" transform="translate(2021,-0.375)"/>
<path d="M0 0 C4.74715059 3.39438085 8.76935632 7.39318811 12.86606359 11.53268862 C13.81430904 12.47631313 14.76342263 13.41906588 15.71331573 14.36103177 C18.29489274 16.92605608 20.86402271 19.50322716 23.43109536 22.08275628 C26.21186814 24.87263535 29.00419601 27.65091019 31.79500341 30.43074465 C37.25003257 35.86804322 42.69426065 41.31603224 48.13461652 46.76800832 C52.55867253 51.20111993 56.98664413 55.63028506 61.41740179 60.05669832 C62.04944807 60.68813166 62.68149434 61.31956501 63.33269353 61.97013269 C64.61694064 63.25310082 65.90119668 64.53606001 67.18546155 65.81901035 C79.21061517 77.83277416 91.22350701 89.85873859 103.23220137 101.88895163 C113.52308849 112.19770826 123.82441756 122.49593276 134.13345861 132.78653383 C146.12238886 144.75402908 158.10476622 156.7280237 170.0768497 168.71237397 C171.35494001 169.9917384 172.63303864 171.27109451 173.91114569 172.55044222 C174.53989709 173.17981072 175.16864849 173.80917923 175.81645297 174.4576195 C180.23491579 178.87952734 184.65798512 183.29679455 189.08288336 187.71226168 C194.47964294 193.09777067 199.8691516 198.4904142 205.24965993 203.89216122 C207.99189688 206.64486743 210.73715479 209.39435904 213.49127531 212.13518 C216.01773836 214.64962744 218.53460618 217.17329898 221.04448381 219.7042987 C222.37326875 221.03959072 223.71176749 222.36519518 225.05071282 223.6902988 C234.9318889 233.69953635 241.76214159 244.22366434 242.27164221 258.5712018 C241.85345722 270.82053721 236.98023145 282.01577751 228.02554846 290.4696393 C217.21415495 298.60298121 206.01657297 300.2464399 192.89664221 299.0712018 C177.55924838 295.62118198 167.01090454 283.33707329 156.30649328 272.62149477 C155.3956338 271.71360641 154.48477433 270.80571806 153.54631305 269.87031794 C151.04711947 267.37909673 148.55097848 264.88483738 146.05539656 262.38999891 C143.35234596 259.68881589 140.64645519 256.99048025 137.94098425 254.29172182 C132.04191503 248.40616191 126.14655931 242.51689193 120.25203371 236.62678194 C116.56758512 232.94510566 112.88240391 229.26416328 109.19709539 225.5833478 C98.97981571 215.37824597 88.76347269 205.1722085 78.55058432 194.96271181 C77.57266064 193.98511748 77.57266064 193.98511748 76.57498093 192.98777378 C75.92155623 192.33456736 75.26813154 191.68136094 74.59490609 191.00836039 C73.27100718 189.68490493 71.94710672 188.36145103 70.62320471 187.03799868 C69.63817331 186.05329942 69.63817331 186.05329942 68.63324228 185.04870725 C57.98009324 174.39951073 47.32020025 163.75709225 36.65740332 153.11755681 C25.69255716 142.17643729 14.73335806 131.22968783 3.77978587 120.27728128 C-2.36351843 114.13489245 -8.50920321 107.99492868 -14.6611352 101.86117983 C-19.89548872 96.64224428 -25.12465057 91.41817547 -30.34717515 86.18740177 C-33.00946838 83.52120949 -35.67409542 80.85746863 -38.345366 78.20026827 C-41.24549913 75.31527139 -44.13378997 72.41869574 -47.02114344 69.52090883 C-48.28038185 68.27375503 -48.28038185 68.27375503 -49.56505942 67.00140619 C-59.74442688 56.73593806 -65.3754905 47.06598741 -66.15804529 32.4696393 C-65.97202395 20.90974143 -61.92839831 11.57357262 -54.25570154 3.0087018 C-38.79733763 -11.71959564 -17.05825252 -11.057736 0 0 Z " fill="#A6C5A1" transform="translate(160.10335779190063,39.92879819869995)"/>
<path d="M0 0 C80.52 0 161.04 0 244 0 C244 18.81 244 37.62 244 57 C213.97 57 183.94 57 153 57 C153 139.83 153 222.66 153 308 C132.87 308 112.74 308 92 308 C92 225.17 92 142.34 92 57 C61.64 57 31.28 57 0 57 C0 38.19 0 19.38 0 0 Z " fill="#000000" transform="translate(613,32)"/>
<path d="M0 0 C18.81 0 37.62 0 57 0 C57 76.89 57 153.78 57 233 C38.19 233 19.38 233 0 233 C-0.00257813 226.84730469 -0.00515625 220.69460938 -0.0078125 214.35546875 C-0.02277279 210.4406809 -0.03949202 206.5260568 -0.0625 202.61132812 C-0.09879547 196.40752701 -0.12883194 190.20416663 -0.12011719 184.00024414 C-0.11349467 178.99430063 -0.13617462 173.98924424 -0.17855453 168.98348427 C-0.18963389 167.08071364 -0.19043294 165.17785247 -0.18042374 163.27507591 C-0.13097382 152.48511373 -0.24317737 143.98962131 -7 135 C-8.12921875 133.45119141 -8.12921875 133.45119141 -9.28125 131.87109375 C-29.71408804 109.45972386 -58.54276212 99.22619267 -87.5625 93.4375 C-123.3372825 86.24232829 -123.3372825 86.24232829 -136 77 C-136.65226562 76.53980469 -137.30453125 76.07960938 -137.9765625 75.60546875 C-144.40473599 70.6407305 -147.84465161 63.72887043 -150 56 C-150.75739751 47.91522192 -151.38823878 39.5646467 -146 33 C-135.59169794 21.72257292 -122.01895742 17.23106208 -107 16 C-106.36449219 15.94714844 -105.72898437 15.89429687 -105.07421875 15.83984375 C-92.26659816 15.28508806 -79.02071535 18.38049396 -69.0546875 26.60546875 C-63.39896679 32.34995638 -60.37488829 39.95315443 -56.91699219 47.12011719 C-50.5504478 60.17187219 -42.32018925 67.21991788 -29 73 C-24.42187885 74.52604038 -19.66062107 74.92382676 -15.03125 73.31640625 C-7.65867119 69.41993368 -3.46101399 62.78251015 -1 55 C-0.43001316 50.69334797 -0.39491356 46.43001922 -0.390625 42.08984375 C-0.36718018 40.48163757 -0.36718018 40.48163757 -0.34326172 38.84094238 C-0.29104732 34.87335004 -0.27246203 30.90537233 -0.25 26.9375 C-0.1675 18.048125 -0.085 9.15875 0 0 Z " fill="#000000" transform="translate(1797,107)"/>
<path d="M0 0 C3.03002275 2.65763842 5.88215528 5.45765658 8.71484375 8.32421875 C9.71451172 9.30841797 9.71451172 9.30841797 10.734375 10.3125 C29.9084871 30.52539018 33.71484375 59.89054582 33.71484375 86.32421875 C15.23484375 86.32421875 -3.24515625 86.32421875 -22.28515625 86.32421875 C-23.27515625 77.41421875 -23.27515625 77.41421875 -24.28515625 68.32421875 C-27.07407924 57.0689224 -31.11897074 46.78339739 -41.28515625 40.32421875 C-54.88535614 33.56987991 -71.32167288 31.56933189 -85.96875 36.421875 C-86.73316406 36.71964844 -87.49757813 37.01742187 -88.28515625 37.32421875 C-88.99800781 37.59105469 -89.71085938 37.85789063 -90.4453125 38.1328125 C-98.61878876 41.67622706 -104.60613595 48.3016672 -108.17234325 56.38522148 C-112.09607861 66.74801159 -112.72949917 77.34874243 -112.7175293 88.31591797 C-112.72657383 89.75639674 -112.7369075 91.19686789 -112.74841309 92.6373291 C-112.77569393 96.50003432 -112.78522764 100.36259242 -112.79126716 104.22538137 C-112.8007272 108.27996097 -112.82693593 112.33443386 -112.85127258 116.38894653 C-112.89473335 124.04539097 -112.92340513 131.70181445 -112.94659597 139.3583442 C-112.97375795 148.08407889 -113.01766209 156.80970514 -113.06288469 165.53536201 C-113.15543807 183.46493758 -113.22504291 201.39450304 -113.28515625 219.32421875 C-132.09515625 219.32421875 -150.90515625 219.32421875 -170.28515625 219.32421875 C-170.33043646 200.30374528 -170.3672227 181.28331596 -170.38878059 162.26280212 C-170.39905974 153.42973897 -170.41305518 144.59671187 -170.43603516 135.76367188 C-170.45607262 128.05795166 -170.46889707 120.35225758 -170.47333324 112.64651203 C-170.47592322 108.57260715 -170.48193928 104.49877699 -170.49661636 100.42489624 C-170.51036464 96.57702191 -170.51434475 92.72925185 -170.51137161 88.88135529 C-170.51191418 87.48192017 -170.5157876 86.08248092 -170.5235672 84.68306732 C-170.59151762 71.80981839 -169.74704713 58.75504219 -166.16015625 46.32421875 C-165.84365112 45.21421509 -165.84365112 45.21421509 -165.52075195 44.08178711 C-158.78721468 21.7925208 -144.72021264 3.56976178 -124.28515625 -7.67578125 C-88.57753113 -26.44680392 -32.10704574 -26.9331261 0 0 Z " fill="#000000" transform="translate(1043.28515625,120.67578125)"/>
<path d="M0 0 C5.87334129 4.50697573 10.97605035 9.89223841 16.20219803 15.11883545 C17.54132133 16.44732978 18.88104437 17.77521981 20.22131729 19.10255432 C23.84216061 22.69276018 27.45326993 26.29260079 31.06169176 29.89528656 C33.32144863 32.150675 35.5832013 34.40404236 37.84564209 36.65673828 C45.75251981 44.52991965 53.6511017 52.41132239 61.54253006 60.29998779 C68.87602555 67.63045008 76.22801335 74.94199803 83.5887686 82.24507809 C89.92679191 88.53519798 96.25113439 94.83885993 102.56528032 101.15294743 C106.32818257 104.91531374 110.09630474 108.67204616 113.87851715 112.41500854 C117.43845526 115.93887051 120.98094328 119.47941535 124.51127052 123.03293419 C125.80195009 124.32645414 127.09851152 125.61413901 128.40163612 126.89512062 C139.19473829 137.51625727 147.77068405 148.40572602 147.96538162 164.2086792 C147.93417889 175.46879412 144.91419758 184.29534366 137.71538162 193.0836792 C128.09337796 202.00345588 117.92478943 205.71317627 104.99443436 205.55682373 C87.82001629 204.84562791 77.75515344 193.42422017 66.31035233 181.96917725 C64.96794408 180.63276076 63.62512907 179.29675277 62.28194046 177.96112061 C58.65129678 174.34807336 55.02709691 170.72862962 51.40460229 167.10741401 C49.13822597 164.84246289 46.87042996 162.57894337 44.60212135 160.31592751 C36.68095841 152.41324036 28.76495144 144.50543084 20.85380936 136.5927124 C13.49090653 129.22860728 6.11691263 121.87573955 -1.26235455 114.52803582 C-7.60940343 108.20716555 -13.9486895 101.87858025 -20.28202373 95.5439685 C-24.05961114 91.76587214 -27.84021143 87.99091896 -31.62864876 84.22369957 C-35.19082705 80.68093137 -38.74321183 77.12862401 -42.28842926 73.5688858 C-43.58740042 72.26782927 -44.8897632 70.9701483 -46.19582558 69.6762104 C-57.15322642 58.81393421 -65.22656788 48.62537607 -65.65961838 32.5836792 C-65.35479048 21.74958761 -61.80383107 12.18448634 -54.46821213 4.0758667 C-38.93647561 -10.42042072 -17.5469153 -11.89386881 0 0 Z " fill="#A6C5A1" transform="translate(65.28461837768555,133.91632080078125)"/>
<path d="M0 0 C8.13592909 5.18185782 14.71627373 12.41231304 21.49682617 19.19042969 C22.84909499 20.53506768 24.20176185 21.87930547 25.55479431 23.22317505 C29.21239063 26.85891694 32.86347714 30.50112675 36.51270843 34.14526272 C38.79594838 36.42484986 41.08047886 38.70313565 43.36544228 40.98099518 C51.34528418 48.93637886 59.31942145 56.89743477 67.28881836 64.86328125 C74.70470086 72.27552626 82.13362149 79.67452647 89.56857699 87.0676353 C95.9640712 93.42839804 102.34987188 99.79878587 108.7283724 106.17658925 C112.53263258 109.98005794 116.34073244 113.77947588 120.15883446 117.56905365 C123.74947731 121.13346573 127.32787528 124.70973724 130.89740944 128.29528427 C132.20517965 129.60486463 133.51718958 130.91022771 134.83383179 132.21088791 C145.42847011 142.68477212 153.20691283 152.50496731 153.375 168.1875 C153.16235713 180.85851362 149.10928347 189.81029477 140.2734375 198.74609375 C131.35465694 206.91146134 121.12764896 209.47921861 109.23828125 209.24609375 C93.3295831 208.03710945 82.97131072 197.56901332 72.30786133 186.87304688 C70.95895184 185.53448534 69.60922279 184.19674926 68.25874329 182.85977173 C64.61298582 179.24492061 60.98007043 175.61742642 57.35036683 171.98646355 C54.30972985 168.94666038 51.26339757 165.91259494 48.21725959 162.87830591 C41.02542474 155.71379532 33.84460707 148.53837019 26.67016602 141.35644531 C19.29094987 133.96999183 11.89165152 126.6040984 4.4824236 119.2477603 C-1.8981958 112.91103487 -8.26508764 106.56073565 -14.62153608 100.19976473 C-18.40926744 96.40972049 -22.20202577 92.62508955 -26.00850487 88.85386658 C-29.59070764 85.30381221 -33.15536562 81.73700011 -36.70778084 78.15714645 C-38.00653418 76.85396893 -39.31116047 75.55661098 -40.62233734 74.26593399 C-51.47031446 63.57601833 -60.01711668 52.74560058 -60.25 36.8125 C-60.1245386 25.67152742 -56.55697421 15.96860193 -48.890625 7.734375 C-35.59761505 -4.64187564 -16.6437755 -8.44609503 0 0 Z " fill="#A6C5A1" transform="translate(343,36)"/>
<path d="M0 0 C5.93893739 4.60736431 10.31934788 9.70479842 14.5625 15.875 C15.69049654 17.47199711 16.81939271 19.06835919 17.94921875 20.6640625 C18.47821777 21.41719727 19.0072168 22.17033203 19.55224609 22.94628906 C21.28915213 25.41017668 23.05706034 27.84523106 24.875 30.25 C25.32617188 30.85328125 25.77734375 31.4565625 26.2421875 32.078125 C33.08671969 39.5614802 41.87550042 44.70696931 50.3125 50.1875 C51.7637086 51.13438383 53.21488028 52.08132423 54.66601562 53.02832031 C64.66360055 59.53946413 74.69608635 65.9811648 85 72 C86.00208496 72.58563721 86.00208496 72.58563721 87.02441406 73.18310547 C96.81475976 78.86804845 106.79395818 84.10370233 117 89 C118.37067627 89.66249756 118.37067627 89.66249756 119.76904297 90.33837891 C122.81787618 91.80403909 125.87616597 93.24815119 128.9375 94.6875 C129.87722656 95.13915527 130.81695313 95.59081055 131.78515625 96.05615234 C146.76294355 103.00684553 162.81260335 106.21487514 178.91870117 109.40405273 C196.03484438 112.81591442 217.79253855 117.37686737 228.6953125 132.32421875 C233.85759796 140.46666418 236.18411319 148.32243297 235 158 C232.22959599 168.15315631 227.02194763 174.06511804 218.11328125 179.38671875 C203.76793789 186.82037849 183.98104619 187.87882177 168.5546875 183.02734375 C154.51993006 177.38339695 146.27607453 168.23755866 138.03955078 155.90722656 C129.16829449 142.68669949 119.19473769 135.72058096 105.49267578 128.23217773 C93.82279775 121.78403149 82.69172095 114.41282274 71.5625 107.08203125 C40.99929542 86.98126013 10.92330988 73.64185503 -24.96411133 66.62231445 C-42.01042847 63.23592993 -61.98094183 58.53577886 -73 44 C-78.45185658 35.06387417 -80.78651744 25.73778252 -78.38671875 15.34375 C-75.27362042 6.45701996 -69.49475891 1.08668016 -61.3125 -3.3125 C-42.43227205 -11.97380457 -17.53058584 -12.24141362 0 0 Z " fill="#000000" transform="translate(1502,132)"/>
<path d="M0 0 C7.38617292 5.77747483 12.61722186 13.12830395 14.66796875 22.3046875 C15.99323423 35.52476591 14.94472095 46.9063771 6.34375 57.4921875 C-1.27929678 65.73716117 -11.15298074 69.36107438 -22.33203125 69.8046875 C-32.4969829 69.4013164 -41.8974519 66.3479732 -49.33203125 59.3046875 C-49.88503906 58.79164062 -50.43804688 58.27859375 -51.0078125 57.75 C-58.67238549 49.80014514 -60.43866575 38.99479565 -60.33203125 28.3046875 C-59.5437718 18.59220498 -55.31647589 9.13392226 -48.33203125 2.3046875 C-34.20419402 -8.30422348 -14.9135177 -10.39333811 0 0 Z " fill="#000000" transform="translate(1848.33203125,8.6953125)"/>
</svg>
