<?xml version="1.0" encoding="UTF-8"?>
<svg id="Ebene_1" xmlns="http://www.w3.org/2000/svg" version="1.1" viewBox="0 0 595.28 595.28">
  <!-- Generator: Adobe Illustrator 30.4.0, SVG Export Plug-In . SVG Version: 2.1.4 Build 226)  -->
  <path d="M99.21,151.38h-49.61v347.24c0,27.28,22.32,49.61,49.61,49.61h347.24v-49.61H99.21V151.38ZM496.06,52.16H198.43c-27.28,0-49.61,22.32-49.61,49.61v297.64c0,27.28,22.32,49.61,49.61,49.61h297.64c27.28,0,49.61-22.32,49.61-49.61V101.77c0-27.28-22.32-49.61-49.61-49.61M496.06,399.41H198.43V101.77h297.64v297.64h-.01ZM259.55,303.2l35.08,35.08,52.62-52.62,52.62,52.62,35.08-35.08-52.62-52.62,52.62-52.62-35.08-35.08-52.62,52.62-52.62-52.62-35.08,35.08,52.62,52.62-52.62,52.62Z"/>
</svg>