<svg xmlns="http://www.w3.org/2000/svg" viewBox="0 0 64 64">
  <rect width="64" height="64" rx="14" fill="#0f172a"/>
  <path
    d="M20 18v28m0-28c4.418 0 8-3.582 8-8m-8 8c-4.418 0-8-3.582-8-8m8 28c4.418 0 8 3.582 8 8m-8-8c-4.418 0-8 3.582-8 8m24-20v20m0-20c4.418 0 8-3.582 8-8m-8 8c-4.418 0-8-3.582-8-8"
    fill="none"
    stroke="#f8fafc"
    stroke-linecap="round"
    stroke-linejoin="round"
    stroke-width="4"
  />
  <path
    d="M20 32h24"
    fill="none"
    stroke="#38bdf8"
    stroke-linecap="round"
    stroke-width="4"
  />
  <circle cx="20" cy="18" r="4.5" fill="#38bdf8"/>
  <circle cx="20" cy="46" r="4.5" fill="#38bdf8"/>
  <circle cx="44" cy="26" r="4.5" fill="#38bdf8"/>
  <circle cx="44" cy="46" r="4.5" fill="#38bdf8"/>
</svg>
