<svg xmlns="http://www.w3.org/2000/svg" width="128" height="128" viewBox="0 0 128 128">
  <defs>
    <linearGradient id="bg" x1="0%" y1="0%" x2="100%" y2="100%">
      <stop offset="0%" stop-color="#0b4f6c"/>
      <stop offset="100%" stop-color="#0f7fa8"/>
    </linearGradient>
  </defs>
  <rect x="8" y="8" width="112" height="112" rx="24" fill="url(#bg)"/>
  <path d="M38 73c-8.8 0-16-6.7-16-15 0-7.5 5.9-13.8 13.8-14.9C38.4 31 49.5 22 62.8 22c14.7 0 26.7 10.8 28.7 24.7 8.1 1 14.5 7.4 14.5 15.3 0 8.6-7.5 15-16.9 15H38z" fill="#eaf8ff"/>
  <g fill="none" stroke="#0b4f6c" stroke-width="7" stroke-linecap="round" stroke-linejoin="round">
    <path d="M48 79l12-12"/>
    <path d="M66 61l14 0a8 8 0 0 1 0 16H66"/>
    <path d="M62 67H48a8 8 0 0 0 0 16h14"/>
  </g>
</svg>
